<svg xmlns="http://www.w3.org/2000/svg" xmlns:xlink="http://www.w3.org/1999/xlink" width="800" zoomAndPan="magnify" viewBox="0 0 600 225" height="300" preserveAspectRatio="xMidYMid meet" version="1.2"><defs><clipPath id="ce53eb76c5"><path d="M 339.085938 14.074219 L 449.335938 14.074219 L 449.335938 148.324219 L 339.085938 148.324219 Z M 339.085938 14.074219 "/></clipPath><clipPath id="0da6186fca"><path d="M 139.582031 34.386719 L 319.582031 34.386719 L 319.582031 146 L 139.582031 146 Z M 139.582031 34.386719 "/></clipPath></defs><g id="ac73d3d7c3"><g clip-rule="nonzero" clip-path="url(#ce53eb76c5)"><path style=" stroke:none;fill-rule:nonzero;fill:#d94a18;fill-opacity:1;" d="M 392.867188 85.824219 L 395.351562 85.824219 C 396.171875 85.824219 396.839844 85.542969 396.839844 85.203125 C 396.839844 84.863281 396.171875 84.585938 395.351562 84.585938 L 392.867188 84.585938 C 392.046875 84.585938 391.378906 84.863281 391.378906 85.203125 C 391.378906 85.542969 392.046875 85.824219 392.867188 85.824219 Z M 379.3125 62.519531 C 379.308594 57.167969 374.980469 52.839844 369.628906 52.835938 C 364.277344 52.839844 359.945312 57.167969 359.945312 62.519531 C 359.945312 67.867188 364.277344 72.199219 369.628906 72.203125 C 374.980469 72.199219 379.308594 67.867188 379.3125 62.519531 Z M 367.394531 56.558594 C 367.394531 55.328125 368.394531 54.324219 369.628906 54.324219 C 370.863281 54.324219 371.863281 55.328125 371.863281 56.558594 C 371.863281 57.792969 370.863281 58.792969 369.628906 58.792969 C 368.394531 58.792969 367.394531 57.796875 367.394531 56.558594 Z M 392.71875 94.402344 L 395.546875 94.402344 C 397.195312 94.402344 400.164062 92.339844 400.164062 91.574219 C 400.164062 91.007812 397.34375 88.742188 395.699219 88.742188 L 392.71875 88.742188 C 391.074219 88.742188 388.25 90.914062 388.25 91.574219 C 388.25 92.21875 391.070312 94.402344 392.71875 94.402344 Z M 418.789062 52.835938 C 413.441406 52.839844 409.105469 57.167969 409.105469 62.519531 C 409.105469 67.867188 413.441406 72.199219 418.789062 72.203125 C 424.136719 72.199219 428.46875 67.867188 428.46875 62.519531 C 428.46875 57.167969 424.136719 52.839844 418.789062 52.835938 Z M 418.789062 58.792969 C 417.554688 58.792969 416.554688 57.792969 416.554688 56.558594 C 416.554688 55.328125 417.554688 54.324219 418.789062 54.324219 C 420.023438 54.324219 421.023438 55.328125 421.023438 56.558594 C 421.023438 57.792969 420.023438 58.792969 418.789062 58.792969 Z M 431.683594 115.410156 C 431.628906 115.402344 431.527344 115.382812 431.449219 115.371094 L 431.449219 78.136719 C 435.992188 74.445312 438.898438 68.824219 438.898438 62.519531 C 438.898438 56.101562 435.882812 50.402344 431.207031 46.722656 C 431.179688 46.417969 431.164062 46.109375 431.132812 45.8125 L 430.957031 44.335938 C 429.6875 34.945312 425.976562 27.765625 420.464844 22.824219 C 413.5625 16.621094 404.242188 14.101562 394.335938 14.101562 C 384.429688 14.101562 375.109375 16.621094 368.207031 22.824219 C 362.78125 27.683594 359.109375 34.714844 357.777344 43.886719 L 357.53125 45.878906 C 357.507812 46.089844 357.5 46.308594 357.480469 46.519531 C 352.652344 50.191406 349.519531 55.984375 349.515625 62.519531 C 349.519531 68.824219 352.425781 74.445312 356.96875 78.132812 L 356.96875 115.382812 C 356.886719 115.390625 356.800781 115.402344 356.746094 115.410156 C 346.992188 115.539062 339.101562 123.507812 339.085938 133.28125 L 339.085938 137.753906 C 339.125 139.699219 340.308594 140.917969 341.292969 141.644531 C 343.109375 142.949219 345.410156 143.71875 348.492188 144.507812 C 350.878906 145.09375 353.730469 145.621094 356.96875 146.082031 L 356.96875 148.179688 L 368.882812 148.179688 L 368.882812 147.339844 C 375.953125 147.875 384.003906 148.175781 392.71875 148.179688 C 402.355469 148.179688 411.519531 147.804688 419.535156 147.15625 L 419.535156 148.179688 L 431.453125 148.179688 L 431.453125 145.867188 C 436.136719 145.199219 440.011719 144.417969 442.929688 143.492188 C 444.46875 142.988281 445.746094 142.46875 446.867188 141.738281 C 447.894531 141.046875 449.253906 139.914062 449.324219 137.753906 L 449.324219 133.28125 C 449.316406 123.507812 441.429688 115.546875 431.683594 115.410156 Z M 383.769531 43.507812 C 389.714844 40.113281 392.707031 35.769531 394.207031 32.253906 C 395.710938 35.769531 398.699219 40.113281 404.648438 43.507812 C 405.914062 44.226562 407.167969 44.820312 408.414062 45.316406 C 404.457031 47.707031 401.398438 51.414062 399.835938 55.84375 C 397.921875 54.875 395.753906 54.324219 393.46875 54.324219 C 391.578125 54.332031 389.898438 54.808594 388.429688 55.425781 C 386.824219 51.179688 383.835938 47.632812 380.003906 45.316406 C 381.246094 44.820312 382.503906 44.226562 383.769531 43.507812 Z M 389.691406 61.570312 L 390.03125 61.230469 C 391.226562 60.640625 392.417969 60.277344 393.472656 60.285156 C 395.324219 60.285156 397.007812 60.886719 398.382812 61.917969 C 398.480469 61.992188 398.59375 62.046875 398.699219 62.109375 C 398.695312 62.246094 398.675781 62.378906 398.675781 62.519531 C 398.683594 72.691406 406.242188 81.078125 416.046875 82.421875 C 415.484375 83.539062 414.894531 84.625 414.265625 85.664062 C 408.761719 94.820312 401.414062 100.582031 394.210938 100.507812 C 387.011719 100.582031 379.660156 94.820312 374.148438 85.664062 C 373.523438 84.628906 372.933594 83.539062 372.371094 82.421875 C 382.175781 81.078125 389.742188 72.695312 389.742188 62.519531 C 389.738281 62.199219 389.703125 61.886719 389.691406 61.570312 Z M 356.96875 140.0625 C 352.589844 139.410156 349.101562 138.621094 346.933594 137.84375 C 346.0625 137.539062 345.410156 137.222656 345.046875 137.003906 L 345.046875 133.285156 C 345.0625 126.75 350.429688 121.378906 356.96875 121.367188 Z M 355.472656 62.519531 C 355.488281 54.699219 361.8125 48.378906 369.628906 48.363281 C 377.445312 48.378906 383.765625 54.699219 383.78125 62.519531 C 383.765625 70.335938 377.445312 76.65625 369.628906 76.671875 C 361.8125 76.65625 355.488281 70.335938 355.472656 62.519531 Z M 388.554688 142.191406 C 381.402344 142.113281 374.753906 141.820312 368.882812 141.363281 L 368.882812 124.101562 C 369.765625 124.910156 370.757812 125.785156 371.867188 126.671875 C 375.839844 129.785156 380.964844 133.199219 386.761719 133.285156 C 386.847656 133.285156 386.933594 133.289062 387.019531 133.289062 C 388.265625 133.289062 389.40625 133.0625 390.453125 132.707031 Z M 390.457031 125.527344 C 389.753906 126.558594 389.226562 127.230469 386.761719 127.324219 C 383.621094 127.410156 379.058594 124.863281 375.585938 122.019531 C 374.019531 120.761719 372.667969 119.511719 371.636719 118.496094 C 374.46875 117.710938 377.269531 116.742188 379.660156 115.394531 C 381.449219 116.945312 385.613281 120.125 391.238281 121.082031 C 391.234375 121.222656 391.230469 121.351562 391.230469 121.503906 C 391.230469 121.835938 391.246094 122.210938 391.269531 122.601562 C 391.167969 123.621094 390.917969 124.75 390.457031 125.527344 Z M 386.277344 112.871094 C 385.433594 112.351562 384.722656 111.832031 384.167969 111.398438 C 385.335938 109.507812 385.898438 107.296875 386.339844 104.917969 C 388.832031 105.890625 391.457031 106.445312 394.210938 106.46875 C 396.960938 106.445312 399.585938 105.890625 402.074219 104.917969 C 402.511719 107.300781 403.078125 109.511719 404.253906 111.40625 C 402.285156 112.933594 398.265625 115.476562 394.207031 115.40625 C 391.292969 115.421875 388.40625 114.191406 386.277344 112.871094 Z M 397.269531 121.070312 C 402.902344 120.082031 407.058594 116.875 408.808594 115.351562 C 409.890625 115.917969 411.054688 116.414062 412.292969 116.890625 C 413.78125 117.445312 415.375 117.945312 416.980469 118.398438 C 415.378906 119.980469 412.898438 122.226562 410.152344 124.054688 C 407.269531 126.007812 404.101562 127.363281 401.753906 127.324219 C 399.28125 127.230469 398.753906 126.558594 398.054688 125.527344 C 397.585938 124.75 397.339844 123.617188 397.242188 122.601562 C 397.265625 122.210938 397.277344 121.835938 397.28125 121.507812 C 397.277344 121.347656 397.273438 121.214844 397.269531 121.070312 Z M 419.535156 141.183594 C 413.582031 141.675781 406.898438 142.015625 399.855469 142.152344 L 397.960938 132.671875 C 399.03125 133.050781 400.210938 133.289062 401.496094 133.289062 C 401.582031 133.289062 401.664062 133.285156 401.753906 133.285156 C 407.550781 133.199219 412.671875 129.785156 416.648438 126.671875 C 417.714844 125.816406 418.679688 124.976562 419.535156 124.191406 Z M 418.789062 76.671875 C 410.972656 76.65625 404.648438 70.335938 404.636719 62.519531 C 404.648438 54.699219 410.972656 48.378906 418.789062 48.363281 C 426.605469 48.378906 432.925781 54.699219 432.941406 62.519531 C 432.925781 70.335938 426.605469 76.65625 418.789062 76.671875 Z M 443.367188 136.902344 C 442.652344 137.285156 440.964844 137.96875 438.742188 138.476562 C 436.742188 138.96875 434.273438 139.429688 431.453125 139.847656 L 431.453125 121.363281 C 437.984375 121.378906 443.355469 126.75 443.367188 133.28125 Z M 443.367188 136.902344 "/></g><g clip-rule="nonzero" clip-path="url(#0da6186fca)"><path style=" stroke:none;fill-rule:nonzero;fill:#d94a18;fill-opacity:1;" d="M 297.117188 65.339844 L 274.253906 78.601562 C 262.683594 67.421875 246.9375 60.546875 229.582031 60.546875 C 194.078125 60.546875 165.296875 89.328125 165.296875 124.832031 L 139.582031 124.832031 C 139.582031 75.125 179.878906 34.832031 229.582031 34.832031 C 256.480469 34.832031 280.625 46.632812 297.117188 65.339844 Z M 306.621094 78.273438 C 314.539062 91.351562 319.226562 106.613281 319.5625 122.941406 C 319.578125 123.570312 319.582031 124.199219 319.582031 124.832031 L 293.867188 124.832031 C 293.863281 124.179688 293.859375 123.6875 293.851562 123.363281 C 293.628906 113.339844 291.109375 103.886719 286.800781 95.5 Z M 243.011719 125.992188 C 243.710938 131.917969 241.339844 138.035156 236.167969 141.792969 C 228.539062 147.335938 217.859375 145.644531 212.316406 138.015625 C 206.773438 130.386719 208.464844 119.707031 216.09375 114.164062 C 221.265625 110.40625 227.816406 110.042969 233.230469 112.539062 L 299.90625 70.242188 C 301.410156 69.355469 303.324219 69.773438 304.320312 71.15625 C 304.386719 71.242188 304.441406 71.328125 304.496094 71.425781 C 305.335938 72.832031 305.015625 74.605469 303.832031 75.644531 Z M 243.011719 125.992188 "/></g><g style="fill:#18a7d9;fill-opacity:1;"><g transform="translate(11.278085, 207.504435)"><path style="stroke:none" d="M 4.140625 0 L 4.140625 -53.6875 L 18.09375 -53.6875 L 31.140625 -17.5625 L 31.359375 -17.5625 L 44.328125 -53.6875 L 58.28125 -53.6875 L 58.28125 0 L 47.9375 0 L 47.9375 -35.734375 L 47.78125 -35.734375 L 34.8125 0 L 27.53125 0 L 14.578125 -35.734375 L 14.421875 -35.734375 L 14.421875 0 Z M 4.140625 0 "/></g></g><g style="fill:#18a7d9;fill-opacity:1;"><g transform="translate(73.614109, 207.504435)"><path style="stroke:none" d="M 0.53125 0 L 19.859375 -53.6875 L 32.125 -53.6875 L 51.609375 0 L 40.03125 0 L 36.125 -11.421875 L 15.796875 -11.421875 L 11.96875 0 Z M 18.640625 -19.703125 L 33.28125 -19.703125 L 26 -41.109375 L 25.84375 -41.109375 Z M 18.640625 -19.703125 "/></g></g><g style="fill:#18a7d9;fill-opacity:1;"><g transform="translate(125.752495, 207.504435)"><path style="stroke:none" d="M 0.6875 0 L 18.25 -27.765625 L 1.375 -53.6875 L 14.03125 -53.6875 L 25.078125 -35.65625 L 25.3125 -35.65625 L 35.96875 -53.6875 L 48.46875 -53.6875 L 31.984375 -27.765625 L 49.546875 0 L 36.65625 0 L 25.3125 -19.25 L 25.078125 -19.25 L 13.5 0 Z M 0.6875 0 "/></g></g><g style="fill:#18a7d9;fill-opacity:1;"><g transform="translate(175.974026, 207.504435)"><path style="stroke:none" d="M 4.140625 0 L 4.140625 -53.6875 L 15.265625 -53.6875 L 15.265625 0 Z M 4.140625 0 "/></g></g><g style="fill:#18a7d9;fill-opacity:1;"><g transform="translate(195.372556, 207.504435)"><path style="stroke:none" d="M 4.140625 0 L 4.140625 -53.6875 L 18.09375 -53.6875 L 31.140625 -17.5625 L 31.359375 -17.5625 L 44.328125 -53.6875 L 58.28125 -53.6875 L 58.28125 0 L 47.9375 0 L 47.9375 -35.734375 L 47.78125 -35.734375 L 34.8125 0 L 27.53125 0 L 14.578125 -35.734375 L 14.421875 -35.734375 L 14.421875 0 Z M 4.140625 0 "/></g></g><g style="fill:#18a7d9;fill-opacity:1;"><g transform="translate(257.70858, 207.504435)"><path style="stroke:none" d="M 25.234375 1 C 21.398438 1 17.84375 0.347656 14.5625 -0.953125 C 11.289062 -2.265625 8.660156 -4.347656 6.671875 -7.203125 C 4.679688 -10.066406 3.6875 -13.773438 3.6875 -18.328125 L 3.6875 -53.6875 L 14.796875 -53.6875 L 14.796875 -18.859375 C 14.796875 -15.335938 15.753906 -12.65625 17.671875 -10.8125 C 19.585938 -8.96875 22.109375 -8.046875 25.234375 -8.046875 C 28.398438 -8.046875 30.925781 -8.976562 32.8125 -10.84375 C 34.707031 -12.71875 35.65625 -15.390625 35.65625 -18.859375 L 35.65625 -53.6875 L 46.78125 -53.6875 L 46.78125 -18.328125 C 46.78125 -13.773438 45.78125 -10.066406 43.78125 -7.203125 C 41.789062 -4.347656 39.171875 -2.265625 35.921875 -0.953125 C 32.679688 0.347656 29.117188 1 25.234375 1 Z M 25.234375 1 "/></g></g><g style="fill:#18a7d9;fill-opacity:1;"><g transform="translate(308.160118, 207.504435)"><path style="stroke:none" d="M 4.140625 0 L 4.140625 -53.6875 L 18.09375 -53.6875 L 31.140625 -17.5625 L 31.359375 -17.5625 L 44.328125 -53.6875 L 58.28125 -53.6875 L 58.28125 0 L 47.9375 0 L 47.9375 -35.734375 L 47.78125 -35.734375 L 34.8125 0 L 27.53125 0 L 14.578125 -35.734375 L 14.421875 -35.734375 L 14.421875 0 Z M 4.140625 0 "/></g></g><g style="fill:#18a7d9;fill-opacity:1;"><g transform="translate(370.496142, 207.504435)"><path style="stroke:none" d=""/></g></g><g style="fill:#18a7d9;fill-opacity:1;"><g transform="translate(386.597691, 207.504435)"><path style="stroke:none" d="M 4.140625 0 L 4.140625 -53.6875 L 15.421875 -53.6875 L 38.03125 -17.640625 L 38.1875 -17.640625 L 38.1875 -53.6875 L 49 -53.6875 L 49 0 L 37.65625 0 L 15.109375 -35.890625 L 14.953125 -35.890625 L 14.953125 0 Z M 4.140625 0 "/></g></g><g style="fill:#18a7d9;fill-opacity:1;"><g transform="translate(439.732822, 207.504435)"><path style="stroke:none" d="M 4.140625 0 L 4.140625 -53.6875 L 42.40625 -53.6875 L 42.40625 -44.484375 L 15.265625 -44.484375 L 15.265625 -31.90625 L 37.734375 -31.90625 L 37.734375 -23.078125 L 15.265625 -23.078125 L 15.265625 -9.515625 L 43.09375 -9.515625 L 43.09375 0 Z M 4.140625 0 "/></g></g><g style="fill:#18a7d9;fill-opacity:1;"><g transform="translate(485.660601, 207.504435)"><path style="stroke:none" d="M 4.140625 0 L 4.140625 -53.6875 L 27 -53.6875 C 31.59375 -53.6875 35.332031 -53.019531 38.21875 -51.6875 C 41.113281 -50.351562 43.222656 -48.550781 44.546875 -46.28125 C 45.878906 -44.007812 46.546875 -41.441406 46.546875 -38.578125 C 46.546875 -34.890625 45.664062 -31.832031 43.90625 -29.40625 C 42.144531 -26.976562 39.957031 -25.484375 37.34375 -24.921875 L 37.34375 -24.765625 C 39.851562 -24.410156 41.785156 -23.109375 43.140625 -20.859375 C 44.492188 -18.609375 45.269531 -15.847656 45.46875 -12.578125 C 45.675781 -9.765625 45.957031 -7.191406 46.3125 -4.859375 C 46.675781 -2.535156 47.035156 -1.066406 47.390625 -0.453125 L 47.390625 0 L 36.125 0 C 35.757812 -0.664062 35.460938 -2.082031 35.234375 -4.25 C 35.003906 -6.425781 34.8125 -8.765625 34.65625 -11.265625 C 34.507812 -13.929688 33.832031 -16.003906 32.625 -17.484375 C 31.425781 -18.960938 29.394531 -19.703125 26.53125 -19.703125 L 15.265625 -19.703125 L 15.265625 0 Z M 15.265625 -28.21875 L 25.453125 -28.21875 C 28.472656 -28.21875 30.863281 -28.90625 32.625 -30.28125 C 34.394531 -31.664062 35.28125 -33.816406 35.28125 -36.734375 C 35.28125 -39.234375 34.523438 -41.171875 33.015625 -42.546875 C 31.503906 -43.929688 29.164062 -44.625 26 -44.625 L 15.265625 -44.625 Z M 15.265625 -28.21875 "/></g></g><g style="fill:#18a7d9;fill-opacity:1;"><g transform="translate(535.498778, 207.504435)"><path style="stroke:none" d="M 4.140625 0 L 4.140625 -53.6875 L 26.609375 -53.6875 C 31.972656 -53.6875 36.457031 -52.535156 40.0625 -50.234375 C 43.664062 -47.929688 46.390625 -44.757812 48.234375 -40.71875 C 50.078125 -36.675781 51 -32.078125 51 -26.921875 C 51 -21.703125 50.050781 -17.0625 48.15625 -13 C 46.269531 -8.9375 43.484375 -5.753906 39.796875 -3.453125 C 36.117188 -1.148438 31.617188 0 26.296875 0 Z M 15.265625 -9.359375 L 24.078125 -9.359375 C 27.097656 -9.359375 29.769531 -9.957031 32.09375 -11.15625 C 34.414062 -12.351562 36.253906 -14.242188 37.609375 -16.828125 C 38.960938 -19.410156 39.640625 -22.773438 39.640625 -26.921875 C 39.640625 -31.003906 38.988281 -34.320312 37.6875 -36.875 C 36.382812 -39.4375 34.59375 -41.316406 32.3125 -42.515625 C 30.039062 -43.722656 27.453125 -44.328125 24.546875 -44.328125 L 15.265625 -44.328125 Z M 15.265625 -9.359375 "/></g></g></g></svg>