<?xml version="1.0" encoding="UTF-8"?>
<svg id="Layer_1" data-name="Layer 1" xmlns="http://www.w3.org/2000/svg" viewBox="0 0 1370.11 299.46">
  <defs>
    <style>
      .cls-1 {
        fill: #101010;
      }
    </style>
  </defs>
  <g>
    <path class="cls-1" d="M391.01,115.02h18.05l34.05,83.54h.32l33.73-83.54h18.05v102.95h-13.46v-80.01h-.32l-32.47,80.01h-11.56l-32.63-80.01h-.32v80.01h-13.46v-102.95Z"/>
    <path class="cls-1" d="M520.07,214.81c-5.65-3.28-9.95-7.79-12.91-13.53-2.96-5.74-4.43-12.18-4.43-19.34s1.5-13.46,4.51-19.19c3.01-5.74,7.29-10.27,12.83-13.6,5.54-3.33,12.06-5,19.56-5s14.39,1.64,19.72,4.93c5.33,3.29,9.32,7.99,11.96,14.12,2.64,6.13,3.96,13.36,3.96,21.69h-59.55c.21,4.61,1.21,8.73,3.01,12.35,1.79,3.63,4.51,6.52,8.16,8.68,3.64,2.16,8.1,3.24,13.38,3.24,5.81,0,10.48-1.25,14.02-3.75,3.54-2.5,5.88-5.76,7.05-9.78h12.83c-2.11,7.26-6.07,13.09-11.88,17.5-5.81,4.41-13.2,6.62-22.17,6.62-7.71,0-14.39-1.64-20.03-4.93ZM559.11,164.15c-1.69-3.04-4.17-5.37-7.44-6.99-3.27-1.62-7.29-2.43-12.04-2.43s-8.61.81-11.88,2.43c-3.27,1.62-5.86,3.95-7.76,6.99-1.9,3.04-3.22,6.67-3.96,10.88h46.09c-.32-4.21-1.32-7.84-3.01-10.88Z"/>
    <path class="cls-1" d="M590.11,215.11c-3.38-3.09-5.07-8.11-5.07-15.07v-43.83h-9.98v-10.3h9.98v-21.62h12.99v21.62h15.21v10.3h-15.21v44.42c0,2.75.66,4.8,1.98,6.18,1.32,1.37,3.03,2.11,5.15,2.21,1.48.1,3.06.05,4.75-.15,1.69-.2,2.95-.39,3.8-.59v10c-1.16.39-2.67.74-4.51,1.03-1.85.29-3.67.44-5.46.44-5.7,0-10.24-1.54-13.62-4.63Z"/>
    <path class="cls-1" d="M630.69,214.81c-5.65-3.28-9.95-7.79-12.91-13.53-2.96-5.74-4.43-12.18-4.43-19.34s1.5-13.46,4.51-19.19c3.01-5.74,7.29-10.27,12.83-13.6,5.54-3.33,12.06-5,19.56-5s14.39,1.64,19.72,4.93c5.33,3.29,9.32,7.99,11.96,14.12,2.64,6.13,3.96,13.36,3.96,21.69h-59.55c.21,4.61,1.21,8.73,3.01,12.35,1.79,3.63,4.51,6.52,8.16,8.68,3.64,2.16,8.1,3.24,13.38,3.24,5.81,0,10.48-1.25,14.02-3.75,3.54-2.5,5.88-5.76,7.05-9.78h12.83c-2.11,7.26-6.07,13.09-11.88,17.5-5.81,4.41-13.2,6.62-22.17,6.62-7.71,0-14.39-1.64-20.03-4.93ZM669.73,164.15c-1.69-3.04-4.17-5.37-7.44-6.99-3.27-1.62-7.29-2.43-12.04-2.43s-8.61.81-11.88,2.43c-3.27,1.62-5.86,3.95-7.76,6.99-1.9,3.04-3.22,6.67-3.96,10.88h46.09c-.32-4.21-1.32-7.84-3.01-10.88Z"/>
    <path class="cls-1" d="M708.92,214.81c-5.76-3.28-10.16-7.79-13.22-13.53-3.06-5.74-4.59-12.18-4.59-19.34s1.53-13.46,4.59-19.19c3.06-5.74,7.47-10.27,13.22-13.6,5.75-3.33,12.43-5,20.03-5s14.25,1.67,19.95,5c5.7,3.33,10.11,7.89,13.23,13.68,3.11,5.79,4.67,12.16,4.67,19.12s-1.56,13.6-4.67,19.34c-3.12,5.74-7.52,10.25-13.23,13.53-5.7,3.28-12.35,4.93-19.95,4.93s-14.28-1.64-20.03-4.93ZM742.42,205.69c3.7-2.3,6.49-5.49,8.39-9.56,1.9-4.07,2.85-8.8,2.85-14.19s-.93-10-2.77-14.12-4.62-7.33-8.31-9.63c-3.7-2.3-8.24-3.46-13.62-3.46s-9.77,1.15-13.46,3.46c-3.7,2.3-6.49,5.51-8.39,9.63-1.9,4.12-2.85,8.82-2.85,14.12s.92,10.12,2.77,14.19c1.85,4.07,4.62,7.26,8.32,9.56,3.69,2.3,8.24,3.46,13.62,3.46s9.77-1.15,13.46-3.46Z"/>
    <path class="cls-1" d="M793.57,215.55c-6.55-2.79-11.67-6.86-15.36-12.21-3.7-5.34-5.76-11.84-6.18-19.49h13.78c.74,8.14,3.88,14.27,9.42,18.38,5.54,4.12,12.91,6.18,22.09,6.18,5.28,0,10.06-.66,14.33-1.99,4.27-1.32,7.63-3.28,10.06-5.88,2.43-2.6,3.64-5.76,3.64-9.49,0-3.92-1.37-7.18-4.12-9.78-2.75-2.6-6.36-4.71-10.85-6.32-4.49-1.62-10.37-3.31-17.66-5.07-7.92-1.96-14.36-3.87-19.32-5.74-4.96-1.86-9.13-4.63-12.51-8.31-3.38-3.68-5.07-8.55-5.07-14.63s1.66-10.96,4.99-15.22c3.33-4.27,8-7.5,14.02-9.71,6.02-2.21,12.88-3.31,20.59-3.31,8.66,0,15.94,1.27,21.86,3.82,5.91,2.55,10.4,6.13,13.46,10.74,3.06,4.61,4.85,9.95,5.38,16.03h-13.46c-.85-6.57-3.51-11.45-8-14.63-4.49-3.18-10.9-4.78-19.24-4.78s-14.31,1.3-18.85,3.9c-4.54,2.6-6.81,6.5-6.81,11.69,0,3.53,1.24,6.47,3.72,8.82,2.48,2.35,5.73,4.27,9.74,5.74,4.01,1.47,9.4,3.09,16.15,4.85,8.87,2.26,16.1,4.51,21.7,6.77,5.6,2.26,10.06,5.25,13.38,8.97,3.32,3.73,4.99,8.48,4.99,14.27,0,6.18-1.74,11.57-5.23,16.18-3.48,4.61-8.45,8.16-14.89,10.66-6.44,2.5-13.99,3.75-22.65,3.75s-16.58-1.4-23.12-4.19Z"/>
    <path class="cls-1" d="M881.58,214.81c-5.6-3.28-9.93-7.82-12.99-13.6-3.06-5.78-4.59-12.21-4.59-19.27s1.5-13.46,4.51-19.19c3.01-5.74,7.31-10.27,12.91-13.6,5.6-3.33,12.04-5,19.32-5,9.29,0,17,2.55,23.12,7.65,6.12,5.1,9.77,11.67,10.93,19.71h-12.99c-.85-5.1-3.09-9.17-6.73-12.21-3.64-3.04-8.42-4.56-14.33-4.56-4.86,0-9.08,1.18-12.67,3.53-3.59,2.35-6.31,5.59-8.16,9.71-1.85,4.12-2.77,8.78-2.77,13.97s.95,10,2.85,14.12c1.9,4.12,4.64,7.33,8.24,9.63,3.59,2.3,7.81,3.46,12.67,3.46,5.91,0,10.72-1.57,14.41-4.71,3.7-3.14,5.91-7.35,6.65-12.65h12.99c-1.16,8.34-4.78,15.08-10.85,20.22-6.07,5.15-13.81,7.72-23.2,7.72-7.29,0-13.73-1.64-19.32-4.93Z"/>
    <path class="cls-1" d="M942.04,115.02h12.99v14.27h-12.99v-14.27ZM942.04,145.91h12.99v72.07h-12.99v-72.07Z"/>
    <path class="cls-1" d="M978.45,214.81c-5.65-3.28-9.95-7.79-12.91-13.53-2.96-5.74-4.43-12.18-4.43-19.34s1.5-13.46,4.51-19.19c3.01-5.74,7.29-10.27,12.83-13.6,5.54-3.33,12.06-5,19.56-5s14.39,1.64,19.72,4.93c5.33,3.29,9.32,7.99,11.96,14.12,2.64,6.13,3.96,13.36,3.96,21.69h-59.55c.21,4.61,1.21,8.73,3.01,12.35,1.79,3.63,4.51,6.52,8.16,8.68,3.64,2.16,8.1,3.24,13.38,3.24,5.81,0,10.48-1.25,14.02-3.75,3.54-2.5,5.88-5.76,7.05-9.78h12.83c-2.11,7.26-6.07,13.09-11.88,17.5-5.81,4.41-13.2,6.62-22.17,6.62-7.71,0-14.39-1.64-20.03-4.93ZM1017.49,164.15c-1.69-3.04-4.17-5.37-7.44-6.99-3.27-1.62-7.29-2.43-12.04-2.43s-8.61.81-11.88,2.43c-3.27,1.62-5.86,3.95-7.76,6.99-1.9,3.04-3.22,6.67-3.96,10.88h46.09c-.32-4.21-1.32-7.84-3.01-10.88Z"/>
    <path class="cls-1" d="M1039.73,145.91h12.99v10.3h.32c2.74-4.02,6.15-7.03,10.22-9.04,4.06-2.01,8.58-3.01,13.54-3.01,8.55,0,15.36,2.26,20.43,6.76,5.07,4.51,7.6,10.74,7.6,18.68v48.39h-12.99v-46.77c0-5.68-1.77-9.83-5.31-12.43-3.54-2.6-7.58-3.9-12.12-3.9-4.01,0-7.68.93-11.01,2.79-3.32,1.86-5.94,4.24-7.84,7.13-1.9,2.89-2.85,5.81-2.85,8.75v44.42h-12.99v-72.07Z"/>
    <path class="cls-1" d="M1122.16,215.11c-3.38-3.09-5.07-8.11-5.07-15.07v-43.83h-9.98v-10.3h9.98v-21.62h12.99v21.62h15.21v10.3h-15.21v44.42c0,2.75.66,4.8,1.98,6.18,1.32,1.37,3.03,2.11,5.15,2.21,1.48.1,3.06.05,4.75-.15,1.69-.2,2.95-.39,3.8-.59v10c-1.16.39-2.67.74-4.51,1.03-1.85.29-3.67.44-5.46.44-5.7,0-10.24-1.54-13.62-4.63Z"/>
    <path class="cls-1" d="M1153.31,115.02h12.99v14.27h-12.99v-14.27ZM1153.31,145.91h12.99v72.07h-12.99v-72.07Z"/>
    <path class="cls-1" d="M1182.09,156.2h-9.5v-10.3h9.5v-12.79c0-7.16,1.66-12.16,4.99-15,3.33-2.84,7.47-4.26,12.43-4.26,2.11,0,4.09.12,5.94.37,1.85.25,3.25.47,4.2.66v10c-.85-.1-1.77-.2-2.77-.29-1-.1-2.03-.15-3.09-.15-2.85,0-5.02.61-6.49,1.84-1.48,1.23-2.22,3.46-2.22,6.69v12.94h14.89v10.3h-14.89v61.77h-12.99v-61.77Z"/>
    <path class="cls-1" d="M1216.89,115.02h12.99v14.27h-12.99v-14.27ZM1216.89,145.91h12.99v72.07h-12.99v-72.07Z"/>
    <path class="cls-1" d="M1253.54,214.81c-5.6-3.28-9.93-7.82-12.99-13.6-3.06-5.78-4.59-12.21-4.59-19.27s1.5-13.46,4.51-19.19c3.01-5.74,7.31-10.27,12.91-13.6,5.6-3.33,12.04-5,19.32-5,9.29,0,17,2.55,23.12,7.65,6.12,5.1,9.77,11.67,10.93,19.71h-12.99c-.85-5.1-3.09-9.17-6.73-12.21-3.64-3.04-8.42-4.56-14.33-4.56-4.86,0-9.08,1.18-12.67,3.53-3.59,2.35-6.31,5.59-8.16,9.71s-2.77,8.78-2.77,13.97.95,10,2.85,14.12,4.64,7.33,8.24,9.63c3.59,2.3,7.81,3.46,12.67,3.46,5.91,0,10.72-1.57,14.41-4.71,3.7-3.14,5.91-7.35,6.65-12.65h12.99c-1.16,8.34-4.78,15.08-10.85,20.22-6.07,5.15-13.81,7.72-23.2,7.72-7.29,0-13.73-1.64-19.32-4.93Z"/>
    <g>
      <path class="cls-1" d="M1325.67,201.37c-1.82-2.29-4.55-3.69-7.48-3.85h-1.08s0,0,0,0c-4.69.25-8.69,3.79-9.5,8.42-.56,3.18.38,6.37,2.57,8.73,1.96,2.12,4.65,3.28,7.5,3.28.34,0,.68-.02,1.02-.05,4.54-.44,8.26-3.89,9.05-8.39.5-2.89-.25-5.87-2.08-8.16ZM1323.42,213.26c-1.52,1.58-3.59,2.45-5.75,2.45-.47,0-.94-.04-1.4-.12-3.26-.58-5.85-3.16-6.43-6.43-.4-2.27.19-4.6,1.63-6.39,1.44-1.79,3.57-2.88,5.87-2.98,1.86-.08,3.7.5,5.19,1.65,1.49,1.14,2.52,2.77,2.92,4.59.57,2.61-.19,5.31-2.03,7.23Z"/>
      <path class="cls-1" d="M1319.75,207.86l.13-.05c1.28-.55,1.86-1.71,1.63-3.27-.29-1.98-2.14-2.33-3.52-2.41h-4.85v10.79h2.94v-3.99h.93c.64,0,1.16.6,1.43,1.16l1.38,2.83h3.14l-1.65-3.35c-.37-.69-.84-1.41-1.57-1.71ZM1318.57,206.01c-.22.85-1.15.82-1.97.8-.13,0-.25,0-.37,0-.05,0-.11,0-.16,0v-2.51h1.08s.01,0,.01,0c.51.04,1.04.07,1.29.52.18.32.19.86.1,1.19Z"/>
    </g>
  </g>
  <path class="cls-1" d="M315.76,140.39c-8.55-.41-16.57,1.7-23.42,5.63.38-.26.75-.52,1.12-.79,9.55-6.75,16.66-16.52,19.66-27.82,1.01-3.81,1.65-8.04,1.65-12.66,0-20.35-12.35-33.18-14.72-35.54-16.64-16.64-42.05-19.17-61.36-7.6-4.88,2.92-9.07,6.87-12.45,11.45-7.29,9.87-13.71,20.42-21.48,29.93-3.43,4.19-6.54,7.44-11.25,11.34-6.24,5.16-12.88,9.8-19.53,14.44,0,0,0,0,0,0-1.54.79-3.35.57-4.38-.56-.84-.93-1.09-2.29-.63-3.6h0c2.36-5.41,4.16-12.08,4.16-19.85,0-20.35-12.35-33.18-14.72-35.54-5.18-5.18-11.22-9-17.65-11.44-21.03-7.99-44.87-.47-57.99,17.81-6.56,9.13-11.14,16.01-18.36,25.75-1.29,1.74-2.81,3.66-4.4,5.7-2.7,3.47-5.44,6.61-8.83,9.02-3.22,2.28-4.63,3.18-5.3,3.53-.18.1-.99.54-1.29,1.23-.34.76-.34,1.76-.34,1.89v100.58c0,1.31.99,2.41,2.29,2.54,1.91.2,3.83.29,5.74.27,15.15-.14,29.33-7.42,38.82-19.22,5.33-6.62,10.09-13.49,15.07-20.26,6.63-9.03,14.94-16.7,24.48-22.56l.64-.39c1.63-1,3.54-1.5,5.45-1.3,1.12.12,2.34.48,3.5,1.28,2.83,1.94,3.35,3.15,3.34,6.56h0c-.51,4.1-.51,8.3.07,12.51,1.44,10.49,6.19,20.61,14.25,28.68h0c5.96,5.96,13.04,10.11,20.57,12.45,21.04,6.54,43.91-1.92,56.13-20.25,3.05-4.58,5.91-9.37,8.79-14.13,7.87-13.02,18.68-24.01,31.55-32.14,4.09-2.58,8.2-5.14,12.24-7.78-10.49,8.26-17.04,21.31-16.33,35.86,1.02,20.72,19.3,39.29,40,40.62,25.41,1.63,46.45-18.89,45.69-44.13-.68-22.21-18.55-40.42-40.75-41.49Z"/>
</svg>