<svg xmlns="http://www.w3.org/2000/svg" xmlns:xlink="http://www.w3.org/1999/xlink" width="64" zoomAndPan="magnify" viewBox="0 0 48 48" height="64" preserveAspectRatio="xMidYMid meet" version="1.0"><path fill="#d94a18" d="M 41.070312 23.296875 C 39.824219 23.234375 38.660156 23.546875 37.664062 24.125 C 37.71875 24.085938 37.773438 24.046875 37.828125 24.007812 C 39.214844 23.015625 40.25 21.578125 40.6875 19.914062 C 40.832031 19.355469 40.925781 18.730469 40.925781 18.050781 C 40.925781 15.058594 39.132812 13.171875 38.785156 12.820312 C 36.367188 10.375 32.675781 10 29.867188 11.703125 C 29.160156 12.132812 28.550781 12.714844 28.058594 13.386719 C 27 14.839844 26.066406 16.390625 24.9375 17.789062 C 24.441406 18.410156 23.988281 18.886719 23.300781 19.460938 C 22.394531 20.21875 21.429688 20.902344 20.464844 21.585938 C 20.242188 21.703125 19.976562 21.667969 19.828125 21.503906 C 19.707031 21.367188 19.671875 21.167969 19.738281 20.972656 C 20.082031 20.175781 20.34375 19.195312 20.34375 18.050781 C 20.34375 15.058594 18.546875 13.171875 18.203125 12.820312 C 17.449219 12.058594 16.574219 11.496094 15.636719 11.136719 C 12.582031 9.960938 9.117188 11.066406 7.207031 13.757812 C 6.253906 15.101562 5.589844 16.113281 4.539062 17.546875 C 4.351562 17.804688 4.132812 18.085938 3.902344 18.386719 C 3.507812 18.898438 3.109375 19.359375 2.617188 19.714844 C 2.148438 20.050781 1.941406 20.179688 1.84375 20.234375 C 1.820312 20.25 1.699219 20.3125 1.65625 20.414062 C 1.609375 20.527344 1.609375 20.675781 1.609375 20.691406 L 1.609375 35.496094 C 1.609375 35.6875 1.753906 35.847656 1.941406 35.867188 C 2.21875 35.898438 2.5 35.910156 2.777344 35.910156 C 4.976562 35.886719 7.039062 34.816406 8.417969 33.078125 C 9.191406 32.105469 9.886719 31.097656 10.609375 30.097656 C 11.574219 28.769531 12.777344 27.640625 14.167969 26.777344 L 14.257812 26.71875 C 14.496094 26.574219 14.773438 26.5 15.050781 26.527344 C 15.214844 26.546875 15.390625 26.597656 15.558594 26.71875 C 15.96875 27.003906 16.046875 27.179688 16.042969 27.683594 C 15.96875 28.285156 15.96875 28.902344 16.054688 29.523438 C 16.265625 31.066406 16.953125 32.554688 18.125 33.742188 C 18.992188 34.621094 20.019531 35.230469 21.113281 35.574219 C 24.171875 36.539062 27.496094 35.292969 29.273438 32.59375 C 29.714844 31.921875 30.132812 31.21875 30.550781 30.515625 C 31.695312 28.601562 33.265625 26.984375 35.132812 25.785156 C 35.726562 25.40625 36.328125 25.03125 36.914062 24.640625 C 35.386719 25.855469 34.433594 27.777344 34.539062 29.917969 C 34.6875 32.96875 37.34375 35.699219 40.351562 35.894531 C 44.046875 36.136719 47.101562 33.117188 46.992188 29.402344 C 46.894531 26.136719 44.296875 23.457031 41.070312 23.296875 Z M 41.070312 23.296875 " fill-opacity="1" fill-rule="nonzero"/></svg>