<?xml version="1.0" encoding="UTF-8"?>
<svg id="Layer_1" data-name="Layer 1" xmlns="http://www.w3.org/2000/svg" viewBox="0 0 578.51 365.09">
  <defs>
    <style>
      .cls-1 {
        fill: #101010;
      }
    </style>
  </defs>
  <path class="cls-1" d="M475.83,185.08c-13.25-.64-25.68,2.63-36.28,8.72.58-.41,1.16-.81,1.74-1.22,14.79-10.46,25.8-25.59,30.46-43.1,1.57-5.9,2.56-12.46,2.56-19.62,0-31.52-19.14-51.4-22.81-55.07-25.78-25.78-65.14-29.71-95.07-11.78-7.56,4.53-14.05,10.64-19.29,17.73-11.3,15.3-21.25,31.64-33.28,46.37-5.31,6.5-10.13,11.53-17.43,17.57-9.67,7.99-19.96,15.19-30.25,22.38,0,0,0,0,0,0-2.39,1.22-5.19.88-6.78-.87-1.31-1.44-1.68-3.54-.98-5.58h0c3.66-8.38,6.45-18.71,6.45-30.75,0-31.52-19.14-51.4-22.81-55.07-8.03-8.03-17.38-13.94-27.35-17.73-32.58-12.38-69.52-.73-89.85,27.59-10.16,14.15-17.27,24.8-28.45,39.9-2,2.7-4.35,5.66-6.82,8.84-4.18,5.37-8.43,10.24-13.69,13.97-4.98,3.54-7.18,4.92-8.22,5.47-.28.15-1.54.84-2,1.91-.52,1.18-.52,2.73-.52,2.92v155.84c0,2.02,1.53,3.73,3.55,3.94,2.96.31,5.93.45,8.9.42,23.47-.22,45.44-11.5,60.15-29.78,8.25-10.25,15.63-20.89,23.34-31.39,10.28-13.99,23.14-25.87,37.93-34.96l.99-.61c2.53-1.55,5.49-2.33,8.44-2.01,1.73.19,3.62.74,5.42,1.98,4.38,3.01,5.19,4.88,5.17,10.16h0c-.79,6.35-.79,12.86.11,19.38,2.23,16.25,9.59,31.93,22.08,44.43h0c9.23,9.23,20.21,15.66,31.87,19.29,32.59,10.14,68.04-2.97,86.96-31.37,4.73-7.1,9.16-14.51,13.62-21.9,12.2-20.17,28.95-37.19,48.87-49.79,6.33-4,12.71-7.96,18.96-12.06-16.26,12.8-26.41,33.02-25.3,55.56,1.58,32.1,29.9,60.88,61.97,62.94,39.37,2.53,71.97-29.27,70.78-68.36-1.05-34.41-28.74-62.62-63.13-64.28Z"/>
</svg>