<svg xmlns="http://www.w3.org/2000/svg" xmlns:xlink="http://www.w3.org/1999/xlink" width="400" zoomAndPan="magnify" viewBox="0 0 300 299.999988" height="400" preserveAspectRatio="xMidYMid meet" version="1.2"><defs><clipPath id="2836c3be1f"><path d="M 21.734375 14.664062 L 146.105469 14.664062 L 146.105469 149.664062 L 21.734375 149.664062 Z M 21.734375 14.664062 "/></clipPath><clipPath id="9d80d8c425"><path d="M 155.648438 14.664062 L 280.015625 14.664062 L 280.015625 149.664062 L 155.648438 149.664062 Z M 155.648438 14.664062 "/></clipPath><clipPath id="9f483930f3"><path d="M 21.734375 158.035156 L 146.105469 158.035156 L 146.105469 293.035156 L 21.734375 293.035156 Z M 21.734375 158.035156 "/></clipPath><clipPath id="4c6ae22b03"><path d="M 155.648438 158.035156 L 280.015625 158.035156 L 280.015625 293.035156 L 155.648438 293.035156 Z M 155.648438 158.035156 "/></clipPath></defs><g id="01dad3a1f9"><g clip-rule="nonzero" clip-path="url(#2836c3be1f)"><path style="fill:none;stroke-width:52;stroke-linecap:butt;stroke-linejoin:miter;stroke:#18a7d9;stroke-opacity:1;stroke-miterlimit:4;" d="M -0.000534984 0.00248295 L 166.230649 0.00248295 L 166.230649 180.439988 L -0.000534984 180.439988 Z M -0.000534984 0.00248295 " transform="matrix(0.748181,0,0,0.748181,21.734775,14.662205)"/></g><g clip-rule="nonzero" clip-path="url(#9d80d8c425)"><path style="fill:none;stroke-width:52;stroke-linecap:butt;stroke-linejoin:miter;stroke:#18a7d9;stroke-opacity:1;stroke-miterlimit:4;" d="M 0.00177204 0.00248295 L 166.227735 0.00248295 L 166.227735 180.439988 L 0.00177204 180.439988 Z M 0.00177204 0.00248295 " transform="matrix(0.748181,0,0,0.748181,155.647112,14.662205)"/></g><g clip-rule="nonzero" clip-path="url(#9f483930f3)"><path style="fill:none;stroke-width:52;stroke-linecap:butt;stroke-linejoin:miter;stroke:#18a7d9;stroke-opacity:1;stroke-miterlimit:4;" d="M -0.000534984 -0.000916948 L 166.230649 -0.000916948 L 166.230649 180.436588 L -0.000534984 180.436588 Z M -0.000534984 -0.000916948 " transform="matrix(0.748181,0,0,0.748181,21.734775,158.035842)"/></g><g clip-rule="nonzero" clip-path="url(#4c6ae22b03)"><path style="fill:none;stroke-width:52;stroke-linecap:butt;stroke-linejoin:miter;stroke:#18a7d9;stroke-opacity:1;stroke-miterlimit:4;" d="M 0.00177204 -0.000916948 L 166.227735 -0.000916948 L 166.227735 180.436588 L 0.00177204 180.436588 Z M 0.00177204 -0.000916948 " transform="matrix(0.748181,0,0,0.748181,155.647112,158.035842)"/></g></g></svg>